<svg width="77" height="90" viewBox="0 0 77 90" fill="none" xmlns="http://www.w3.org/2000/svg">
<g id="Bell icon">
<g id="Fly">
<path id="Vector" d="M25.1922 4.9L25.5311 4.80919L25.6257 5.16222C24.9935 5.31661 24.3711 5.50865 23.7618 5.73732L23.6296 5.39439C24.1325 5.21925 24.6603 5.04252 25.1922 4.9ZM21.803 6.22183L21.9704 6.54525C21.3953 6.84794 20.8436 7.19308 20.3199 7.57777L20.1045 7.28233C20.6446 6.89023 21.2132 6.53889 21.8055 6.23124L21.803 6.22183ZM18.5899 8.59626L18.8461 8.85555C18.3897 9.3164 17.9711 9.81321 17.5944 10.3412L17.2966 10.1334C17.6834 9.58424 18.1156 9.06848 18.5887 8.59155L18.5899 8.59626ZM16.2662 11.8423L16.5894 12.013C16.2915 12.5904 16.0353 13.1884 15.8228 13.8025L15.478 13.683C15.6946 13.048 15.9572 12.4297 16.2637 11.8329L16.2662 11.8423ZM14.9668 15.616L15.3272 15.6809C15.2108 16.3196 15.1497 16.9673 15.1447 17.6166L14.7805 17.6133C14.7838 16.9418 14.8457 16.272 14.9655 15.6113L14.9668 15.616ZM14.949 19.6164L15.3096 19.55C15.3777 19.8042 15.4141 20.0719 15.481 20.3214C15.5759 20.6702 15.6898 21.0136 15.8221 21.35C16.1951 21.2764 16.5719 21.2243 16.9507 21.1939L16.9829 21.5586C16.3803 21.6089 15.7832 21.7114 15.1984 21.8652L15.076 21.898L14.9814 21.545L15.1085 21.5109L15.4616 21.4163C15.3325 21.0857 15.2219 20.7482 15.1301 20.4053C15.0573 20.1524 14.9995 19.8803 14.9477 19.6117L14.949 19.6164ZM13.1099 22.2987L13.282 22.6209C12.715 22.9264 12.1863 23.2984 11.7072 23.7289L11.4627 23.4564C11.9634 23.0052 12.516 22.615 13.1086 22.294L13.1099 22.2987ZM18.9604 21.2002C19.6278 21.2566 20.2898 21.3661 20.9399 21.5275L20.8477 21.8801C20.2187 21.7242 19.5781 21.6192 18.9322 21.566L18.9604 21.2002ZM16.7609 23.1214C17.1251 23.6546 17.5477 24.1455 18.0208 24.5849L17.7747 24.8527C17.2788 24.3969 16.8371 23.8855 16.4583 23.3287L16.7609 23.1214ZM10.1348 24.9776L10.4326 25.1854C10.0632 25.7167 9.74689 26.2831 9.48824 26.8763L9.15596 26.7282C9.42094 26.1087 9.74761 25.5175 10.131 24.9635L10.1348 24.9776ZM22.8257 22.1825L22.9497 22.2502C23.5254 22.5346 24.032 22.9412 24.4344 23.4415L24.1402 23.6616C23.7715 23.2037 23.3069 22.8323 22.779 22.5734L22.6622 22.5139L22.8257 22.1825ZM8.48771 28.6024L8.83815 28.7052C8.65496 29.3395 8.49909 29.9816 8.37835 30.6042L8.01666 30.5347C8.13958 29.9014 8.29763 29.2486 8.48771 28.6024ZM19.5775 25.7065C20.1192 26.0077 20.6915 26.2501 21.2848 26.4296L21.368 26.4577L21.2651 26.8082L21.1772 26.7813C20.5637 26.5907 19.9725 26.3347 19.4137 26.0178L19.5775 25.7065ZM24.495 25.3626L24.8398 25.4821C24.7142 25.8192 24.5088 26.1209 24.2411 26.3613C23.9734 26.6018 23.6514 26.7737 23.3028 26.8625L23.2082 26.5095C23.498 26.4337 23.7658 26.2902 23.9895 26.0908C24.2132 25.8914 24.3865 25.6418 24.495 25.3626ZM7.74373 32.5098L8.10601 32.5439C8.04633 33.193 8.0206 33.8449 8.02893 34.4967L7.66732 34.5028C7.65187 33.838 7.67582 33.173 7.73902 32.511L7.74373 32.5098ZM7.80249 36.4947L8.16813 36.4472C8.25138 37.094 8.37109 37.7357 8.52671 38.3691L8.17369 38.4637C8.01356 37.8147 7.88963 37.1574 7.80249 36.4947ZM9.0971 40.2342C9.32301 40.8509 9.58096 41.4554 9.8699 42.0451L9.54049 42.2091C9.24865 41.6115 8.98706 40.9997 8.75669 40.3759L9.0971 40.2342ZM10.818 43.7384C11.1558 44.2836 11.5278 44.8246 11.9315 45.3521L11.6373 45.5722C11.2324 45.04 10.8425 44.4886 10.5069 43.9328L10.818 43.7384ZM13.1698 46.8668C13.5997 47.3418 14.0639 47.8128 14.5539 48.2667L14.3018 48.531C13.8153 48.0711 13.3439 47.592 12.9114 47.1076L13.1698 46.8668ZM16.0166 49.5648C16.5153 49.9761 17.0409 50.375 17.5769 50.7561L17.3644 51.0552C16.8225 50.6707 16.2896 50.2636 15.785 49.8489L16.0166 49.5648ZM19.2111 51.8468C19.7656 52.2028 20.3348 52.5194 20.9121 52.8289L20.7414 53.1521C20.1521 52.8358 19.5591 52.5053 19.0213 52.155L19.2111 51.8468ZM22.6716 53.7095C23.2495 53.9835 23.8685 54.2414 24.4731 54.483L24.3416 54.8209C23.7277 54.5818 23.1121 54.3179 22.5176 54.0383L22.6716 53.7095Z" fill="#263238"/>
<g id="Group 1">
<path id="Vector_2" d="M27.5486 4.44907C27.8758 4.40357 28.2052 4.37594 28.5354 4.36628L28.5427 4.7326C28.5427 4.7326 28.1811 4.73868 27.5949 4.81001L27.5486 4.44907Z" fill="#263238"/>
<path id="Vector_3" d="M32.4861 3.87923C32.2028 1.93714 28.0747 1.9132 28.4437 4.45788C28.8128 7.00255 32.7731 5.83543 32.4861 3.87923Z" fill="#263238"/>
<path id="Vector_4" d="M26.6146 2.11213C26.7819 1.30552 28.0216 0.867395 29.5748 1.42993C30.6453 1.87026 31.6218 2.51101 32.4518 3.31774C31.3761 3.72956 30.2316 3.93176 29.08 3.91348C27.3914 3.80595 26.431 2.9332 26.6146 2.11213Z" fill="#EBEBEB"/>
<path id="Vector_5" d="M32.4374 3.32053C31.6041 3.1856 30.7774 3.01866 29.952 2.85642C29.1265 2.69418 28.3042 2.50588 27.4875 2.30093C28.3207 2.43586 29.1474 2.6028 29.9729 2.76504C30.7983 2.92728 31.6207 3.11558 32.4374 3.32053Z" fill="#263238"/>
<path id="Vector_6" d="M28.3315 1.6674C28.5531 1.81814 28.7654 1.98192 28.9675 2.1579C29.1667 2.33291 29.355 2.52002 29.5313 2.71817C29.3097 2.56744 29.0974 2.40365 28.8953 2.22768C28.6952 2.05357 28.5069 1.8664 28.3315 1.6674Z" fill="#263238"/>
<path id="Vector_7" d="M30.3558 2.89486C30.1149 3.03158 29.8668 3.15532 29.6126 3.26553C29.3559 3.37477 29.0935 3.47034 28.8266 3.55182C29.3131 3.28233 29.8254 3.06224 30.3558 2.89486Z" fill="#263238"/>
<path id="Vector_8" d="M30.6823 2.47621C30.8982 2.63431 31.0768 2.83793 31.2054 3.07263C30.9894 2.91452 30.8109 2.71091 30.6823 2.47621Z" fill="#263238"/>
<path id="Vector_9" d="M27.3137 7.20588C27.7054 7.93335 29.0138 7.99644 30.3402 7.01548C31.2413 6.28574 31.9946 5.39037 32.5594 4.37762C31.4032 4.29474 30.2418 4.43467 29.1384 4.78979C27.5874 5.34662 26.911 6.45614 27.3137 7.20588Z" fill="#EBEBEB"/>
<path id="Vector_10" d="M32.5594 4.37832C31.7995 4.74336 31.0545 5.14479 30.3129 5.54025C29.5713 5.93571 28.8335 6.34529 28.1208 6.77337C28.876 6.40959 29.621 6.00817 30.3626 5.61271C31.1042 5.21724 31.8326 4.81018 32.5594 4.37832Z" fill="#263238"/>
<path id="Vector_11" d="M29.0975 7.14234C29.2633 6.94177 29.4176 6.73198 29.5598 6.51398C29.6994 6.28812 29.8273 6.05516 29.9428 5.81604C29.7742 6.01439 29.6197 6.22436 29.4806 6.44439C29.3394 6.66939 29.2115 6.90243 29.0975 7.14234Z" fill="#263238"/>
<path id="Vector_12" d="M30.6946 5.3833C30.1512 5.2629 29.5967 5.20012 29.0401 5.196C29.5831 5.31878 30.1379 5.38159 30.6946 5.3833Z" fill="#263238"/>
<path id="Vector_13" d="M31.1061 5.69526C31.1881 5.59104 31.2576 5.47761 31.3132 5.35725C31.3675 5.23458 31.4093 5.10676 31.438 4.97571C31.3563 5.08158 31.2872 5.1966 31.2322 5.31843C31.1724 5.4374 31.13 5.56429 31.1061 5.69526Z" fill="#263238"/>
<path id="Vector_14" d="M32.4861 3.87787C32.3471 3.8983 32.2051 3.87709 32.0781 3.81693C31.9511 3.75677 31.8448 3.66033 31.7725 3.5398C31.7002 3.41927 31.6653 3.28005 31.672 3.13967C31.6788 2.9993 31.727 2.86407 31.8105 2.75106C31.8941 2.63804 32.0092 2.55231 32.1414 2.50465C32.2736 2.45699 32.417 2.44955 32.5534 2.48328C32.6898 2.517 32.8132 2.59037 32.908 2.69414C33.0028 2.7979 33.0647 2.92741 33.086 3.06633C33.1133 3.25338 33.0656 3.44365 32.9532 3.59566C32.8408 3.74767 32.673 3.84911 32.4861 3.87787Z" fill="#455A64"/>
<path id="Vector_15" d="M32.6928 5.29196C32.6001 5.30555 32.5055 5.30074 32.4146 5.2778C32.3238 5.25486 32.2383 5.21424 32.1631 5.15826C32.0879 5.10228 32.0244 5.03205 31.9764 4.95155C31.9283 4.87106 31.8966 4.7819 31.883 4.68914C31.8694 4.59639 31.8742 4.50186 31.8972 4.41096C31.9201 4.32007 31.9607 4.23458 32.0167 4.15938C32.0727 4.08419 32.1429 4.02075 32.2234 3.9727C32.3039 3.92465 32.3931 3.89293 32.4858 3.87934C32.6732 3.85189 32.8637 3.89997 33.0156 4.01303C33.1675 4.12608 33.2682 4.29483 33.2956 4.48216C33.3231 4.66948 33.275 4.86003 33.1619 5.0119C33.0489 5.16377 32.8801 5.26452 32.6928 5.29196Z" fill="#455A64"/>
</g>
</g>
<g id="Bell">
<path id="Vector_16" d="M40.9719 85.3725C45.7849 83.4435 48.1228 77.978 46.1939 73.165C44.2649 68.352 38.7995 66.014 33.9865 67.943C29.1734 69.872 26.8355 75.3374 28.7644 80.1504C30.6934 84.9634 36.1588 87.3014 40.9719 85.3725Z" fill="#2ECC70"/>
<path id="Vector_17" d="M3.51555 64.436L71.3462 89.1707L68.6326 82.0902C66.9604 77.7183 66.9198 72.8903 68.5182 68.4908L75.2243 50.088C76.415 46.8362 76.9519 43.3813 76.8042 39.9215C76.6566 36.4618 75.8272 33.0652 74.3637 29.9267C72.9002 26.7882 70.8315 23.9696 68.2761 21.6325C65.7207 19.2955 62.7291 17.486 59.4727 16.3078C52.922 13.93 45.6954 14.2488 39.3796 17.1942C33.0637 20.1397 28.1748 25.471 25.7861 32.0178L19.3399 49.6929C17.8434 53.7898 15.0175 57.2672 11.3134 59.5701L3.51555 64.436Z" fill="#2ECC70"/>
<path id="Vector_18" d="M57.3187 9.74819L54.2704 18.1098C53.6882 19.7066 54.5108 21.4731 56.1077 22.0553L56.977 22.3722C58.5739 22.9544 60.3404 22.1318 60.9225 20.5349L63.9709 12.1733C64.553 10.5765 63.7304 8.81001 62.1336 8.22785L61.2642 7.91091C59.6673 7.32875 57.9009 8.15132 57.3187 9.74819Z" fill="#2ECC70"/>
<path id="Vector_19" d="M71.3046 89.2851C71.2526 89.4203 56.1249 84.0346 37.5245 77.2453C18.9241 70.456 3.87945 64.8415 3.93144 64.696C3.98342 64.5504 19.1112 69.8945 37.7116 76.7358C56.312 83.5771 71.3566 89.1811 71.3046 89.2851Z" fill="#738096"/>
<g id="Group" opacity="0.3">
<path id="Vector_20" d="M28.5621 73.6895C30.3302 76.4687 32.9271 78.6219 35.9857 79.8446C39.2526 81.1233 42.8633 81.2226 46.1956 80.1253L28.5621 73.6895Z" fill="white"/>
</g>
<g id="Group_2" opacity="0.2">
<path id="Vector_21" d="M74.0286 45.4826C74.3368 44.7 74.4543 43.8554 74.3717 43.0185C74.3187 42.6018 74.1249 42.2158 73.8223 41.9245C73.5196 41.6333 73.1265 41.4543 72.7082 41.4173C72.2585 41.3516 71.8 41.4429 71.4099 41.6759C71.0197 41.9088 70.7218 42.2692 70.5664 42.6961C69.5267 45.5969 67.1249 52.0535 65.5653 55.7653C64.2865 58.8844 62.6126 62.0659 59.7118 63.7399C57.3859 64.9336 54.7167 65.2792 52.1635 64.7172C49.6347 64.1435 47.1638 63.3395 44.7816 62.3155C41.7458 61.0679 38.5682 60.1984 35.3202 59.7266C34.4575 59.5646 33.5673 59.6363 32.7417 59.9345C32.3391 60.0965 32.0034 60.3905 31.7899 60.7684C31.5764 61.1462 31.4978 61.5855 31.5669 62.0139C31.7852 62.7833 32.6066 63.22 33.3136 63.5527C40.7995 67.0565 48.3997 70.4564 56.4367 72.3591C58.0835 72.8853 59.8533 72.8853 61.5001 72.3591C63.2988 71.6105 64.3801 69.791 65.2742 68.0651C68.8623 60.8147 71.7921 53.2569 74.0286 45.4826Z" fill="white"/>
</g>
<g id="Group_3" opacity="0.2">
<path id="Vector_22" d="M54.8876 21.7045C54.8148 20.0202 53.7647 18.1799 50.6559 17.8888C45.8803 17.4292 41.1025 18.743 37.2333 21.5797C33.0427 24.4405 29.9858 28.6781 28.5933 33.5572C28.115 35.2415 27.8863 37.1858 28.8532 38.6518C30.2984 40.8768 33.8023 40.7312 35.9441 39.2028C38.0859 37.6744 39.2711 35.1168 40.5396 32.7774C41.808 30.4381 43.4404 28.0467 45.9461 27.1734C47.9631 26.4664 50.3024 26.8407 52.1843 25.8114C52.955 25.4234 53.6103 24.8398 54.0847 24.1191C54.5591 23.3984 54.8359 22.5658 54.8876 21.7045Z" fill="black"/>
</g>
<path id="Vector_23" d="M72.2716 25.9982C72.1885 26.0606 71.2319 24.657 69.3293 22.7751C68.2052 21.685 66.9952 20.6871 65.7111 19.7911C64.1127 18.7172 62.4175 17.7948 60.6477 17.0359C58.8665 16.3039 57.0219 15.7366 55.1372 15.3412C53.5947 15.0374 52.0299 14.86 50.4585 14.8109C47.7657 14.7485 46.1125 15.05 46.0918 14.9461C46.4647 14.8136 46.8521 14.7263 47.2458 14.6861C47.7026 14.6002 48.1645 14.5446 48.6286 14.5198C49.2256 14.4502 49.8264 14.419 50.4273 14.4262C52.0277 14.4111 53.6259 14.5504 55.1996 14.8421C59.0715 15.5595 62.7425 17.1059 65.9606 19.3752C67.2683 20.2991 68.4866 21.3434 69.5996 22.4944C70.0882 22.9726 70.4625 23.4613 70.816 23.8772C71.1225 24.2242 71.4039 24.5924 71.6582 24.9793C71.9081 25.2894 72.1145 25.6322 72.2716 25.9982Z" fill="#738096"/>
<path id="Vector_24" d="M22.5007 43.621C22.578 43.1496 22.6999 42.6866 22.8646 42.2382C23.1245 41.3648 23.53 40.0964 24.0707 38.5472C25.3996 34.4523 27.2369 30.5402 29.5395 26.9025C31.8736 23.2526 35.0924 20.2519 38.8969 18.1793C40.0564 17.5751 41.2807 17.1043 42.5463 16.7757C43.0037 16.642 43.4744 16.5583 43.9499 16.5262C42.2717 17.0711 40.6438 17.7599 39.0841 18.5848C35.406 20.7118 32.2875 23.6842 29.9866 27.256C27.7224 30.8548 25.8572 34.6897 24.4242 38.6928C23.8835 40.1588 23.3844 41.3752 23.0621 42.3318C22.9227 42.7808 22.7344 43.2131 22.5007 43.621Z" fill="black"/>
<path id="Vector_25" d="M13.4552 59.2891C13.3616 59.1539 15.3162 57.7919 17.1565 55.5565C18.9968 53.3212 20.0053 51.169 20.1509 51.2418C19.683 52.9841 18.798 54.5863 17.5724 55.91C16.4897 57.3492 15.0778 58.5079 13.4552 59.2891Z" fill="black"/>
<path id="Vector_26" d="M35.9129 84.0868C35.9129 84.1596 35.2995 84.1804 34.3638 83.8892C33.1348 83.4976 32.0332 82.7838 31.1738 81.8219C30.3144 80.8601 29.7285 79.6855 29.4771 78.4204C29.3344 77.9068 29.3344 77.364 29.4771 76.8504C29.644 77.336 29.776 77.8328 29.8722 78.3372C30.2015 79.4981 30.7899 80.5691 31.5931 81.4696C32.3963 82.3701 33.3934 83.0765 34.5093 83.5357C34.9897 83.6858 35.4587 83.87 35.9129 84.0868Z" fill="black"/>
<path id="Vector_27" d="M60.3877 8.56232C60.4501 8.70788 59.348 9.17575 58.4538 10.3506C57.9966 11.1013 57.6069 11.8911 57.2894 12.7108C57.1951 12.2378 57.2117 11.7494 57.338 11.284C57.4643 10.8185 57.6968 10.3887 58.0172 10.0283C58.2659 9.61182 58.611 9.26122 59.0236 9.00608C59.4361 8.75094 59.904 8.59875 60.3877 8.56232Z" fill="black"/>
</g>
</g>
</svg>
