<svg width="19" height="16" viewBox="0 0 19 16" fill="none" xmlns="http://www.w3.org/2000/svg">
<path d="M9.5 0C7.61989 0 5.89179 0.722292 4.56445 1.91667C4.49792 1.97242 4.44274 2.0417 4.40219 2.12039C4.36164 2.19907 4.33656 2.28554 4.32845 2.37465C4.32033 2.46376 4.32934 2.55367 4.35494 2.63903C4.38055 2.72439 4.42222 2.80345 4.47747 2.8715C4.53273 2.93954 4.60043 2.99518 4.67655 3.03509C4.75267 3.075 4.83564 3.09837 4.92053 3.1038C5.00541 3.10923 5.09046 3.09661 5.17061 3.0667C5.25076 3.03678 5.32437 2.99019 5.38704 2.92969C6.49424 1.9334 7.92718 1.33333 9.5 1.33333C12.7912 1.33333 15.4856 3.95862 15.8024 7.33333H13.9333L16.4667 11.3333L19 7.33333H17.0678C16.744 3.23444 13.476 0 9.5 0ZM2.53333 4.66667L0 8.66667H1.93216C2.25598 12.7656 5.52404 16 9.5 16C11.3801 16 13.1082 15.2777 14.4355 14.0833C14.5021 14.0276 14.5573 13.9583 14.5978 13.8796C14.6384 13.8009 14.6634 13.7145 14.6716 13.6254C14.6797 13.5362 14.6707 13.4463 14.6451 13.361C14.6195 13.2756 14.5778 13.1965 14.5225 13.1285C14.4673 13.0605 14.3996 13.0048 14.3235 12.9649C14.2473 12.925 14.1644 12.9016 14.0795 12.8962C13.9946 12.8908 13.9095 12.9034 13.8294 12.9333C13.7492 12.9632 13.6756 13.0098 13.613 13.0703C12.5058 14.0666 11.0728 14.6667 9.5 14.6667C6.20885 14.6667 3.51437 12.0414 3.19759 8.66667H5.06667L2.53333 4.66667Z" fill="black"/>
</svg>
