<svg width="46" height="48" viewBox="0 0 46 48" fill="none" xmlns="http://www.w3.org/2000/svg">
<path fill-rule="evenodd" clip-rule="evenodd" d="M23 8C14.5316 8 7.66665 15.1634 7.66665 24C7.66665 32.8366 14.5316 40 23 40C31.4683 40 38.3333 32.8366 38.3333 24C38.3333 15.1634 31.4683 8 23 8ZM3.83331 24C3.83331 12.9543 12.4145 4 23 4C33.5854 4 42.1666 12.9543 42.1666 24C42.1666 35.0457 33.5854 44 23 44C12.4145 44 3.83331 35.0457 3.83331 24ZM26.2719 16.5858C27.0204 17.3668 27.0204 18.6332 26.2719 19.4142L21.8772 24L26.2719 28.5858C27.0204 29.3668 27.0204 30.6332 26.2719 31.4142C25.5234 32.1953 24.3099 32.1953 23.5614 31.4142L17.8114 25.4142C17.0629 24.6332 17.0629 23.3668 17.8114 22.5858L23.5614 16.5858C24.3099 15.8047 25.5234 15.8047 26.2719 16.5858Z" fill="#2ECC70"/>
</svg>
