<svg width="14" height="17" viewBox="0 0 14 17" fill="none" xmlns="http://www.w3.org/2000/svg">
<g id="Lock">
<g id="Stroke 1" opacity="0.4">
<mask id="path-1-inside-1_42_515" fill="white">
<path fill-rule="evenodd" clip-rule="evenodd" d="M10.6861 6.07914V4.28997C10.6861 2.19581 8.98782 0.497474 6.89365 0.497474C4.79948 0.488307 3.09448 2.17831 3.08532 4.27331V4.28997V6.07914"/>
</mask>
<path fill-rule="evenodd" clip-rule="evenodd" d="M10.6861 6.07914V4.28997C10.6861 2.19581 8.98782 0.497474 6.89365 0.497474C4.79948 0.488307 3.09448 2.17831 3.08532 4.27331V4.28997V6.07914" fill="#D9D9D9"/>
<path d="M9.68615 6.07914C9.68615 6.63143 10.1339 7.07914 10.6861 7.07914C11.2384 7.07914 11.6861 6.63143 11.6861 6.07914H9.68615ZM6.89365 0.497474L6.88927 1.49747H6.89365V0.497474ZM3.08532 4.27331L2.08532 4.26893V4.27331H3.08532ZM2.08532 6.07914C2.08532 6.63143 2.53303 7.07914 3.08532 7.07914C3.6376 7.07914 4.08532 6.63143 4.08532 6.07914H2.08532ZM11.6861 6.07914V4.28997H9.68615V6.07914H11.6861ZM11.6861 4.28997C11.6861 1.64352 9.5401 -0.502526 6.89365 -0.502526V1.49747C8.43553 1.49747 9.68615 2.74809 9.68615 4.28997H11.6861ZM6.89803 -0.502517C4.25149 -0.514101 2.09691 1.62175 2.08533 4.26893L4.08531 4.27768C4.09206 2.73487 5.34748 1.49072 6.88927 1.49746L6.89803 -0.502517ZM2.08532 4.27331V4.28997H4.08532V4.27331H2.08532ZM2.08532 4.28997V6.07914H4.08532V4.28997H2.08532Z" fill="black" mask="url(#path-1-inside-1_42_515)"/>
</g>
<path id="Stroke 3" fill-rule="evenodd" clip-rule="evenodd" d="M10.0693 15.9139H3.70182C1.95682 15.9139 0.541824 14.4998 0.541824 12.7539V9.17977C0.541824 7.43394 1.95682 6.01978 3.70182 6.01978H10.0693C11.8143 6.01978 13.2293 7.43394 13.2293 9.17977V12.7539C13.2293 14.4998 11.8143 15.9139 10.0693 15.9139Z" stroke="black" stroke-linecap="round" stroke-linejoin="round"/>
<path id="Stroke 5" d="M6.88574 10.0415V11.8923" stroke="black" stroke-linecap="round" stroke-linejoin="round"/>
</g>
</svg>
