<svg width="8" height="13" viewBox="0 0 8 13" fill="none" xmlns="http://www.w3.org/2000/svg">
<g id="Icon / Light / Month Chevron">
<path id="Month Chevron" d="M1.91885 12.0459C2.21932 12.0459 2.461 11.9443 2.67002 11.7412L7.5885 7.08203C7.86937 6.80908 7.99348 6.54248 8.00001 6.20605C8.00001 5.87598 7.86937 5.59668 7.5885 5.33008L2.67655 0.664551C2.461 0.467773 2.21279 0.366211 1.91885 0.366211C1.31792 0.366211 0.821503 0.835938 0.821503 1.41992C0.821503 1.71191 0.95214 1.97852 1.17422 2.20068L5.43952 6.2124L1.17422 10.2114C0.945608 10.4336 0.821503 10.7002 0.821503 10.9922C0.821503 11.5698 1.31792 12.0459 1.91885 12.0459Z" fill="#2ECC70"/>
</g>
</svg>
