<svg width="23" height="28" viewBox="0 0 23 28" fill="none" xmlns="http://www.w3.org/2000/svg">
<path d="M11.7302 26.5016L11.7285 26.5026C11.6581 26.5406 11.5794 26.5605 11.4994 26.5605C11.421 26.5605 11.3438 26.5414 11.2745 26.5048L11.2443 26.4876L11.2443 26.4876L11.1573 26.4379C10.6644 26.1457 10.1834 25.834 9.71543 25.5033L9.71533 25.5032C8.4992 24.6443 7.36292 23.6775 6.32027 22.6146C3.8565 20.0912 1.34375 16.3467 1.34375 11.5625C1.34375 8.8689 2.41378 6.28561 4.31845 4.38095C6.22311 2.47628 8.8064 1.40625 11.5 1.40625C14.1936 1.40625 16.7769 2.47628 18.6816 4.38095C20.5862 6.28561 21.6562 8.8689 21.6562 11.5625C21.6562 16.3479 19.1449 20.0911 16.68 22.6143C15.6369 23.6773 14.5001 24.6442 13.2835 25.5032L13.2831 25.5034C12.8153 25.8343 12.3344 26.1462 11.8416 26.4385L11.7593 26.486L11.7302 26.5016ZM11.5 15.9375C12.6603 15.9375 13.7731 15.4766 14.5936 14.6561C15.4141 13.8356 15.875 12.7228 15.875 11.5625C15.875 10.4022 15.4141 9.28938 14.5936 8.46891C13.7731 7.64844 12.6603 7.1875 11.5 7.1875C10.3397 7.1875 9.22688 7.64844 8.40641 8.46891C7.58594 9.28938 7.125 10.4022 7.125 11.5625C7.125 12.7228 7.58594 13.8356 8.40641 14.6561C9.22688 15.4766 10.3397 15.9375 11.5 15.9375Z" fill="#2ECC70" stroke="#2B3D50"/>
</svg>
