<svg width="13" height="13" viewBox="0 0 13 13" fill="none" xmlns="http://www.w3.org/2000/svg">
<path d="M6.18765 1.21961C6.21305 1.15465 6.25632 1.09909 6.31194 1.05999C6.36756 1.02088 6.43302 1 6.5 1C6.56697 1 6.63244 1.02088 6.68806 1.05999C6.74368 1.09909 6.78694 1.15465 6.81235 1.21961L8.08877 4.43729C8.11267 4.4975 8.15195 4.54963 8.20228 4.58795C8.25262 4.62628 8.31207 4.6493 8.37409 4.65449L11.6886 4.93276C11.9883 4.95794 12.1097 5.35016 11.8814 5.55476L9.35619 7.82244C9.30901 7.86474 9.27386 7.91984 9.25457 7.98169C9.23529 8.04355 9.23262 8.10977 9.24687 8.17311L10.0187 11.5633C10.0342 11.6313 10.0302 11.7026 10.007 11.7682C9.98392 11.8338 9.94276 11.8908 9.88877 11.9318C9.83478 11.9729 9.77038 11.9963 9.70371 11.9991C9.63703 12.0019 9.57108 11.9838 9.51417 11.9473L6.67599 10.131C6.623 10.0971 6.5621 10.0792 6.5 10.0792C6.43789 10.0792 6.377 10.0971 6.324 10.131L3.48583 11.948C3.42892 11.9845 3.36296 12.0025 3.29629 11.9997C3.22962 11.997 3.16522 11.9736 3.11123 11.9325C3.05724 11.8914 3.01608 11.8344 2.99295 11.7688C2.96982 11.7032 2.96575 11.6319 2.98126 11.5639L3.75313 8.17311C3.76744 8.10977 3.76481 8.04353 3.74552 7.98166C3.72623 7.91979 3.69104 7.8647 3.6438 7.82244L1.11858 5.55476C1.06773 5.50933 1.03089 5.4491 1.01272 5.38171C0.99455 5.31431 0.995873 5.24278 1.01652 5.17618C1.03717 5.10957 1.07621 5.05089 1.1287 5.00755C1.1812 4.96422 1.24478 4.93819 1.3114 4.93276L4.6259 4.65449C4.68792 4.6493 4.74737 4.62628 4.79771 4.58795C4.84805 4.54963 4.88733 4.4975 4.91122 4.43729L6.18765 1.21961Z" fill="#ECC00F" stroke="#ECC00F" stroke-width="1.5" stroke-linecap="round" stroke-linejoin="round"/>
</svg>
